<mxfile host="app.diagrams.net" modified="2023-10-06T19:35:59.312Z" agent="Mozilla/5.0 (Windows NT 10.0; Win64; x64) AppleWebKit/537.36 (KHTML, like Gecko) Chrome/117.0.0.0 Safari/537.36" etag="p1Y4YYCq31nWxwQv-HzS" version="22.0.3" type="device">
  <diagram name="Page-1" id="Cs443b4kzevI9FWd7OWL">
    <mxGraphModel dx="1405" dy="740" grid="1" gridSize="10" guides="1" tooltips="1" connect="1" arrows="1" fold="1" page="1" pageScale="1" pageWidth="827" pageHeight="1169" math="0" shadow="0">
      <root>
        <mxCell id="0" />
        <mxCell id="1" parent="0" />
        <mxCell id="v1SIivraFQ01EJhRGVN5-2" value="" style="endArrow=none;html=1;rounded=0;entryX=0.5;entryY=0;entryDx=0;entryDy=0;" edge="1" parent="1" source="v1SIivraFQ01EJhRGVN5-14" target="v1SIivraFQ01EJhRGVN5-10">
          <mxGeometry width="50" height="50" relative="1" as="geometry">
            <mxPoint x="390" y="140" as="sourcePoint" />
            <mxPoint x="390" y="90" as="targetPoint" />
            <Array as="points">
              <mxPoint x="390" y="150" />
            </Array>
          </mxGeometry>
        </mxCell>
        <mxCell id="v1SIivraFQ01EJhRGVN5-5" value="&lt;b style=&quot;border-color: var(--border-color);&quot;&gt;&lt;font style=&quot;border-color: var(--border-color); font-size: 22px;&quot;&gt;About&lt;/font&gt;&lt;/b&gt;" style="rounded=1;whiteSpace=wrap;html=1;" vertex="1" parent="1">
          <mxGeometry x="320" y="320" width="160" height="90" as="geometry" />
        </mxCell>
        <mxCell id="v1SIivraFQ01EJhRGVN5-7" value="&lt;b&gt;&lt;font style=&quot;font-size: 24px;&quot;&gt;Portfolio&lt;/font&gt;&lt;/b&gt;" style="rounded=1;whiteSpace=wrap;html=1;" vertex="1" parent="1">
          <mxGeometry x="320" y="480" width="160" height="100" as="geometry" />
        </mxCell>
        <mxCell id="v1SIivraFQ01EJhRGVN5-10" value="&lt;p style=&quot;line-height: 230%;&quot;&gt;&lt;font size=&quot;1&quot; style=&quot;&quot;&gt;&lt;b style=&quot;font-size: 27px;&quot;&gt;Contact&lt;/b&gt;&lt;/font&gt;&lt;/p&gt;" style="rounded=1;whiteSpace=wrap;html=1;" vertex="1" parent="1">
          <mxGeometry x="315" y="660" width="170" height="110" as="geometry" />
        </mxCell>
        <mxCell id="v1SIivraFQ01EJhRGVN5-12" value="" style="endArrow=none;html=1;rounded=0;exitX=1;exitY=0.25;exitDx=0;exitDy=0;" edge="1" parent="1" source="v1SIivraFQ01EJhRGVN5-13">
          <mxGeometry width="50" height="50" relative="1" as="geometry">
            <mxPoint x="250" y="200" as="sourcePoint" />
            <mxPoint x="320" y="188" as="targetPoint" />
          </mxGeometry>
        </mxCell>
        <mxCell id="v1SIivraFQ01EJhRGVN5-13" value="&lt;font style=&quot;font-size: 22px;&quot;&gt;&lt;b&gt;Navigation&lt;br&gt;Bar&lt;br&gt;&lt;/b&gt;&lt;/font&gt;" style="rounded=1;whiteSpace=wrap;html=1;" vertex="1" parent="1">
          <mxGeometry x="80" y="110" width="171" height="310" as="geometry" />
        </mxCell>
        <mxCell id="v1SIivraFQ01EJhRGVN5-15" style="edgeStyle=orthogonalEdgeStyle;rounded=0;orthogonalLoop=1;jettySize=auto;html=1;exitX=0.5;exitY=1;exitDx=0;exitDy=0;" edge="1" parent="1" source="v1SIivraFQ01EJhRGVN5-14" target="v1SIivraFQ01EJhRGVN5-14">
          <mxGeometry relative="1" as="geometry" />
        </mxCell>
        <mxCell id="v1SIivraFQ01EJhRGVN5-18" value="" style="endArrow=none;html=1;rounded=0;entryX=0.5;entryY=0;entryDx=0;entryDy=0;" edge="1" parent="1" target="v1SIivraFQ01EJhRGVN5-14">
          <mxGeometry width="50" height="50" relative="1" as="geometry">
            <mxPoint x="390" y="140" as="sourcePoint" />
            <mxPoint x="400" y="660" as="targetPoint" />
            <Array as="points" />
          </mxGeometry>
        </mxCell>
        <mxCell id="v1SIivraFQ01EJhRGVN5-14" value="&lt;font style=&quot;font-size: 26px;&quot;&gt;&lt;b style=&quot;&quot;&gt;&lt;font style=&quot;font-size: 26px;&quot;&gt;&amp;nbsp;&lt;br&gt;&lt;/font&gt;&lt;/b&gt;&lt;b style=&quot;border-color: var(--border-color);&quot;&gt;&lt;font style=&quot;border-color: var(--border-color); font-size: 26px;&quot;&gt;Home&lt;/font&gt;&lt;/b&gt;&lt;/font&gt;&lt;b style=&quot;font-size: 26px;&quot;&gt;&lt;font style=&quot;font-size: 26px;&quot;&gt;&lt;font style=&quot;font-size: 26px;&quot;&gt;&lt;br&gt;&lt;/font&gt;&lt;br&gt;&lt;/font&gt;&lt;/b&gt;" style="rounded=1;whiteSpace=wrap;html=1;" vertex="1" parent="1">
          <mxGeometry x="310" y="110" width="190" height="130" as="geometry" />
        </mxCell>
      </root>
    </mxGraphModel>
  </diagram>
</mxfile>
